<svg xmlns="http://www.w3.org/2000/svg" viewBox="0 0 366.82 90.83"><defs><style>.cls-1{fill:#e65a00;}.cls-2{fill:#732d00;}.cls-3{font-size:18.55px;letter-spacing:-0.02em;}.cls-3,.cls-7{fill:#fff;font-family:Quicksand-Bold, Quicksand;font-weight:700;}.cls-4{letter-spacing:-0.06em;}.cls-5{letter-spacing:-0.09em;}.cls-6{letter-spacing:0em;}.cls-7{font-size:17.54px;}.cls-8{letter-spacing:-0.05em;}.cls-9{letter-spacing:0em;}.cls-10{fill:#6b478d;}.cls-11{fill:#362447;}.cls-12{fill:#fbb03b;}.cls-13{fill:#805915;}.cls-14{letter-spacing:-0.04em;}.cls-15{letter-spacing:-0.02em;}.cls-16{letter-spacing:-0.02em;}.cls-17{letter-spacing:-0.1em;}.cls-18{letter-spacing:-0.09em;}.cls-19{letter-spacing:0em;}</style></defs><g id="Camada_2" data-name="Camada 2"><g id="OBJECTS"><polygon class="cls-1" points="115.81 67.33 175.05 67.33 183.41 77.14 191.77 67.33 251 67.33 251 0 115.81 0 115.81 67.33"/><polygon class="cls-2" points="115.81 67.33 175.05 67.33 183.41 77.14 191.77 67.33 251 67.33 251 40.69 115.81 40.69 115.81 67.33"/><text class="cls-3" transform="translate(157.79 26.38)">C<tspan class="cls-4" x="13.93" y="0">O</tspan><tspan class="cls-5" x="28.68" y="0">T</tspan><tspan class="cls-6" x="38.94" y="0">A</tspan></text><text class="cls-7" transform="translate(143.29 58.15)">PREMI<tspan class="cls-8" x="51.73" y="0">U</tspan><tspan class="cls-9" x="65.13" y="0">M</tspan></text><polygon class="cls-10" points="0 82.67 49.27 82.67 56.23 90.83 63.18 82.67 112.45 82.67 112.45 26.67 0 26.67 0 82.67"/><polygon class="cls-11" points="0 82.67 49.27 82.67 56.23 90.83 63.18 82.67 112.45 82.67 112.45 60.52 0 60.52 0 82.67"/><polygon class="cls-12" points="254.37 82.67 303.64 82.67 310.6 90.83 317.55 82.67 366.82 82.67 366.82 26.67 254.37 26.67 254.37 82.67"/><polygon class="cls-13" points="254.37 82.67 303.64 82.67 310.6 90.83 317.55 82.67 366.82 82.67 366.82 60.52 254.37 60.52 254.37 82.67"/><text class="cls-3" transform="translate(281.89 51.52)">C<tspan class="cls-4" x="13.93" y="0">O</tspan><tspan class="cls-5" x="28.68" y="0">T</tspan><tspan class="cls-6" x="38.94" y="0">A</tspan></text><text class="cls-7" transform="translate(280.59 78.3)"><tspan class="cls-14">O</tspan><tspan class="cls-15" x="14.12" y="0">U</tspan><tspan class="cls-16" x="27.95" y="0">R</tspan><tspan x="38.61" y="0">O</tspan></text><text class="cls-3" transform="translate(28.5 51.42)">C<tspan class="cls-4" x="13.93" y="0">O</tspan><tspan class="cls-5" x="28.68" y="0">T</tspan><tspan class="cls-6" x="38.94" y="0">A</tspan></text><text class="cls-7" transform="translate(28.07 78.2)">PR<tspan class="cls-17" x="21.18" y="0">A</tspan><tspan class="cls-18" x="30.76" y="0">T</tspan><tspan class="cls-19" x="40.46" y="0">A</tspan></text></g></g></svg>